<?xml version="1.0" encoding="utf-8"?>
<!-- Generator: Adobe Illustrator 27.0.1, SVG Export Plug-In . SVG Version: 6.00 Build 0)  -->
<svg version="1.1" id="Layer_1" xmlns="http://www.w3.org/2000/svg" xmlns:xlink="http://www.w3.org/1999/xlink" x="0px" y="0px"
	 viewBox="0 0 205.2 196.6" style="enable-background:new 0 0 205.2 196.6;" xml:space="preserve">
<style type="text/css">
	.st0{fill:#EE3A23;}
	.st1{enable-background:new    ;}
	.st2{fill:#FFFFFF;}
</style>
<path class="st0" d="M12,89.3C12,40.5,51.5,1,100.3,1s88.3,39.5,88.3,88.3s-39.5,88.3-88.3,88.3c-11.7,0-22.8-2.3-33-6.4
	c-9.9,11.8-24.1,20.4-44.8,24c9.8-12.5,15.8-26.1,18.3-40.7C23.1,138.3,12,115.1,12,89.3L12,89.3z"/>
<g class="st1">
	<path class="st2" d="M70.7,60.3l-3.7,21h27.3l-2.2,12.5H64.8l-3.8,22h30.8l-2.3,12.9H42.3l14.4-81.2h47.1l-2.2,12.8H70.7z"/>
	<path class="st2" d="M106.7,124c-5.2-3.7-7.8-8.8-7.8-15.5c0-0.7,0.1-1.7,0.2-3.1h16.6c-0.3,3.3,0.6,5.9,2.6,8
		c2.1,2.1,5.1,3.1,9,3.1c4,0,7.1-0.8,9.4-2.5c2.3-1.7,3.4-4,3.4-7.1c0-2.9-1.2-5.2-3.5-6.9c-2.4-1.7-6.1-3.6-11.1-5.7
		c-4.6-1.9-8.4-3.7-11.3-5.3c-2.9-1.6-5.4-3.9-7.4-6.8c-2.1-2.9-3.1-6.6-3.1-11c0-5,1.3-9.4,3.9-13.1c2.6-3.7,6.2-6.6,10.7-8.6
		c4.5-2,9.7-3,15.5-3c5.7,0,10.7,0.9,14.9,2.8c4.2,1.9,7.4,4.6,9.5,8.1c2.1,3.5,3,7.6,2.7,12.2h-17.3l0.1-1.3c0-2.6-0.9-4.6-2.8-6.3
		c-1.9-1.6-4.6-2.4-8-2.4c-3.6,0-6.6,0.9-8.8,2.6c-2.2,1.7-3.4,4-3.4,7c0,1.9,0.6,3.6,1.9,5.1c1.3,1.4,2.8,2.7,4.7,3.7
		c1.9,1,4.5,2.4,8,4c4.6,2,8.3,3.9,11.3,5.7c2.9,1.8,5.5,4.1,7.6,7.1c2.1,2.9,3.1,6.5,3.1,10.8c0,4.6-1.3,8.8-3.8,12.4
		c-2.5,3.6-6.1,6.5-10.7,8.5c-4.6,2.1-10,3.1-16.1,3.1C118.6,129.5,111.9,127.7,106.7,124z"/>
</g>
</svg>
