<?xml version="1.0" encoding="UTF-8"?>
<svg id="Layer_1" data-name="Layer 1" xmlns="http://www.w3.org/2000/svg" viewBox="0 0 3915.38 1340.89">
  <defs>
    <style>
      .cls-1 {
        fill: #ee3a23;
      }

      .cls-2, .cls-3 {
        fill: #222f3d;
      }

      .cls-3 {
        font-family: Arial-Black, 'Arial Black';
        font-size: 471.64px;
        font-weight: 800;
        letter-spacing: 0em;
      }

      .cls-4 {
        fill: #60737f;
        font-family: MontserratRoman-Medium, Montserrat;
        font-size: 176.85px;
        font-variation-settings: 'wght' 500;
        font-weight: 500;
        letter-spacing: .3em;
      }
    </style>
  </defs>
  <g id="LOGO">
    <g id="TXT">
      <g>
        <text class="cls-4" transform="translate(2294.52 999.41)"><tspan x="0" y="0">INSURANCE</tspan></text>
        <g id="SOCAL">
          <path class="cls-1" d="M1468.95,948.29s1.85,36.98,51.77,36.98c36.99,0,62.87-14.79,62.87-48.07,0-29.6-24.04-44.38-55.09-53.23l-13.32-4.09c-33.28-9.24-61.02-36.98-61.02-60.9,0-43.43,30.55-62.98,79.51-62.98,18.86,0,40.68,11.09,40.68,11.09l-5.55,12.94s-14.79-9.63-35.22-9.63c-40.25,0-62.88,19.95-62.88,47.94,0,19.01,24.57,33.98,51.87,44.9,9.24,3.7,17.95,8.12,22.19,9.24,27.73,7.4,55.47,38.83,55.54,56.53,.19,46-13.02,70.46-83.41,70.46-17.41,0-35.33-5.17-46.1-12.35-16.64-11.09-20.34-38.83-20.34-38.83h18.49Z"/>
          <path class="cls-1" d="M1612.62,902.39c0-45.58,21.55-66.89,58.87-66.89s58.55,21.31,58.55,66.89v30.78c0,45.58-20.91,66.89-58.55,66.89s-58.87-21.31-58.87-66.89v-30.78Zm17.21,35.96c0,32.85,16.24,46.92,41.66,46.92s41.34-14.07,41.34-46.92v-40.84c0-33.44-16.57-45.14-41.34-45.14s-41.66,11.99-41.66,45.14v40.84Z"/>
          <path class="cls-1" d="M1747.92,923.05v-15.28h99.75s0,15.28,0,15.28h-99.75Z"/>
          <path class="cls-1" d="M1977.42,976.02v18.49s-30.76,5.27-46.84,5.27c-58.55,0-65.94-33.01-65.4-94.74v-66.27c-.55-73.53,23.49-86.47,64.17-86.47,25.89,0,44.38,11.09,44.38,11.09,0,0-6.95,14.17-7.92,13.85-9.97-3.86-13.13-6.45-32.76-6.45-37.64,0-49.37,14.79-49.37,66.05v70.13c0,46.65-6.1,74.6,58.61,74.6,16.09,0,35.13-5.55,35.13-5.55Z"/>
          <path class="cls-1" d="M2040.29,1000.06c-25.88,0-48.5-24.24-48.5-52.55,0-13.71,.43-23.25,.43-34.35,0-29.58,23.23-42.53,57.32-42.53,22.19,0,46.22,12.94,46.22,12.94v-7.4c0-22.19-44.38-25.89-44.38-25.89v-14.79s63.46-3.7,63.46,46.38v116.33s-54.29,1.85-74.55,1.85Zm55.47-21.1v-78.74s-19.37-7.07-25.89-9.24c-11.09-3.7-35.13-3.7-35.13-3.7-22.19,0-25.89,25.23-25.89,48.07,0,42.53,24.75,49.92,44.38,49.92h36.21c1.67,0,3.28-.67,4.46-1.85h0c1.18-1.18,1.85-2.79,1.85-4.46Z"/>
          <path class="cls-1" d="M2141.98,773.28h18.27v225.22s-18.27,0-18.27,0v-225.22Z"/>
        </g>
      </g>
      <text class="cls-3" transform="translate(1450.46 674.47)"><tspan x="0" y="0">HAMMER</tspan></text>
    </g>
    <g id="ESCUDO_SIN_ICONOS" data-name="ESCUDO SIN ICONOS">
      <g>
        <path class="cls-1" d="M774.12,937.65c-2.36-1.13-11.53-5.82-13.62-7.7-2.17-1.95-3.5-4.95-3.97-7.41-.17-.87,.05-26.65,.05-27.54,0-21.66-9.94-41.32-26.07-56.3-9.45-8.78-21.03-15.07-33.97-19.21v30.5c0,.65-.53,1.18-1.18,1.18h-13.03c-.65,0-1.18-.53-1.18-1.18v-50.34c0-.98-.8-1.78-1.78-1.78h-52.11c-.98,0-1.78,.8-1.78,1.78v50.34c0,.66-.53,1.19-1.19,1.19h-13.03c-.65,0-1.19-.53-1.19-1.19v-30.69c-13.14,4.12-24.89,10.45-34.47,19.32-16.18,14.98-26.17,34.68-26.17,56.39,0,.89,.44,20.67,.05,27.54-.12,2.07-.65,5.44-2.2,6.82-5.33,4.74-12.44,6.52-16.68,8.39-.95,.42-1.68,1.22-1.68,2.27v16.59h245.8v-17.54c0-.45-.18-1.21-.59-1.41Z"/>
        <path class="cls-1" d="M567.42,972.08c0,5.16,.74,32.13,1.62,37.04,7.14,39.98,42.08,70.33,84.11,70.33s76.65-30.42,84.12-70.34c2.5-13.4,1.32-31.86,1.32-37.02h-171.17Z"/>
        <path class="cls-1" d="M715.78,691.33c-36.78-23.08-89.53-23.07-126.29,.04L114.25,963.37l317.98,275.31c140.67,135.94,303.5,136.33,444.65,.88l314.87-276.19-475.96-272.04Zm60.11,493.85c0-23.41-16.78-42.9-38.97-47.1h-167.84c-22.19,4.2-38.97,23.69-38.97,47.1h-14.23c0-31.36,23.22-57.3,53.41-61.56h167.43c30.19,4.26,53.41,30.2,53.41,61.56h-14.23Zm14.23-225.62v10c0,1.35-1.09,2.44-2.44,2.44h-10.53l-23.17,.07c.07,6.52-.46,32.11-1.2,37.04-7.3,48.47-49.13,85.64-99.63,85.64s-92.71-37.5-99.73-86.29c-.68-4.73-1.4-31.47-1.4-36.39l-25.53-.07h-10c.38,0,.21-.35-.04-.91-.34-.42-.55-.95-.55-1.53v-35.4c0-12.43,11.85-10.73,16.46-12.74,.73-.32,1.3-2.1,1.3-2.9-.01-5.43,0-22.75,0-23.53,0-26.01,11.56-49.35,30.55-66.88,12.47-11.5,28.14-19.34,45.85-23.95v-11.63c0-4.89,4-8.88,8.88-8.88h68.7c4.89,0,8.88,4,8.88,8.88v11.77c17.33,4.59,32.68,12.29,44.96,23.53,19.18,17.56,30.86,41,30.86,67.16,0,.81-.01,21.27-.03,25.59,0,.47,.41,.94,.7,1.09,8.22,4.13,17.1,2.36,17.1,14.2v23.69Z"/>
      </g>
      <g>
        <g>
          <path class="cls-1" d="M921.18,508.56c-14.84,0-26.89,11.72-27.17,26.28,0,.18,.01,.35,.01,.52s-.01,.35-.01,.52c.28,14.56,12.34,26.28,27.17,26.28s27.19-12,27.19-26.8-12.17-26.8-27.19-26.8Z"/>
          <path class="cls-1" d="M851.88,508.56c-15.01,0-27.19,12-27.19,26.8s12.17,26.8,27.19,26.8,26.89-11.72,27.17-26.28c0-.18-.01-.35-.01-.52s.01-.35,.01-.52c-.28-14.56-12.34-26.28-27.17-26.28Z"/>
          <path class="cls-1" d="M1153.91,173.43C1072.7,134.33,671.18,3.5,671.18,3.5V537.22c0,18.43,2.73,36.81,8.54,54.3,4.05,12.2,9.96,25.22,18.53,36.07,22.56,28.57,57.15,48.12,57.15,48.12l457.16,263.17s21.05-117.3,87.22-464.68c27.69-145.39-70.58-264.51-145.87-300.77Zm67.49,348.54c0,4.51-1.71,8.86-4.77,12.18-1.56,1.69-3.14,3.32-4.15,4.11-1.04,.82-3.32,2.11-5.38,3.21-2.61,1.4-5.53,2.14-8.49,2.14h-27.96c-3.87,19.13-20.95,33.55-41.44,33.55s-37.57-14.42-41.44-33.55h-125.27c-3.88,19-20.9,33.31-41.31,33.31-14.36,0-27.04-7.09-34.65-17.91-7.61,10.82-20.29,17.91-34.65,17.91-20.41,0-37.43-14.31-41.31-33.31h-27.75c-4.92,0-8.91-3.99-8.91-8.91v-16.48c0-2.38-.96-4.67-2.65-6.34l-40.46-39.93c-1.7-1.67-2.65-3.96-2.65-6.34v-121c0-4.74,2.81-9.02,7.16-10.91l44.63-19.34c1.12-.48,2.33-.73,3.54-.73h214.83c.9,0,1.75-.41,2.32-1.11l23.17-28.84c1.69-2.11,4.25-3.33,6.95-3.33h34.95c4.92,0,8.91,3.99,8.91,8.91v60.02h-16.64v-48.73c0-1.64-1.33-2.97-2.97-2.97h-18.79c-.9,0-1.74,.4-2.31,1.1l-21.09,26c-2.26,2.78-5.65,4.4-9.23,4.4h-214.65c-1.28,0-2.55,.28-3.71,.81l-34.09,15.62c-4.22,1.94-6.93,6.16-6.93,10.8v101.56c0,2.38,.95,4.67,2.65,6.34l41.05,40.52c1.7,1.67,2.65,3.96,2.65,6.34v12.91c0,1.64,1.33,2.97,2.97,2.97h17.09c3.94-18.92,20.93-33.15,41.28-33.15,14.36,0,27.04,7.09,34.65,17.91,7.61-10.82,20.29-17.91,34.65-17.91,20.36,0,37.34,14.23,41.28,33.15h125.33c3.93-19.05,20.98-33.39,41.41-33.39s37.48,14.34,41.41,33.39h26.31c3.34,0,6.04-2.71,6.04-6.04v-69.58c0-2.86-2.34-5.2-5.2-5.2h-12.63c-6.43,0-16.05-9.51-19.61-16.64-6.81-13.62-11.29-45.76-25.55-45.76h-62.41c-1.64,0-2.97,1.33-2.97,2.97v92.71h-16.64v-102.81c0-4.92,3.99-8.91,8.91-8.91h79.34c10.99,0,16.09,9.48,19.31,14.26,5.05,7.51,9.51,29.71,15.2,41.19,1.73,3.48,7.04,8.55,10.93,8.52,4.84-.05,29.74-2.16,29.74,19.83v70.48Zm-214.54-174.48v55.86h-16.64v-55.86h16.64Zm-97.46,0v55.86h-16.64v-55.86h16.64Zm-97.46,0v55.86h-16.64v-55.86h16.64Zm315.09,81.4l-10.12-16.73,11.5-8.6,18.17,25.76c1.89,2.43,2.92,5.43,2.92,8.51,0,6.56-5.32,9.51-11.89,9.51h-42.19v-16.64h30.6c.93,0,1.5-1.01,1.02-1.8Z"/>
          <ellipse class="cls-1" cx="1129.21" cy="535.36" rx="27.27" ry="26.96"/>
        </g>
        <g>
          <path class="cls-2" d="M419.84,239.27h-6.12c-1.03,0-2.05,.27-2.94,.78l-27.65,20.04c-8.82,6.39-20.87,5.94-29.18-1.1-9.65-8.18-22.28-16.76-28.49-19.72-14.85-7.07-49.39-1.73-63.61,1.78-37.62,9.28-65.36,44.58-71.9,53.54-.89,1.23-.91,2.88-.04,4.13l.99,1.41c.99,1.42,2.94,2.06,4.42,1.18,12.69-7.59,24.9-11.53,32.81-13.51,9.47-2.37,28.5-1.19,38.46,4.14,16.57,8.88,26.04,36.69,27.22,37.28,1.18,.59,37.28,0,37.28,0,0,0,7.1-29.59,21.89-38.46,2.69-1.61,12.95-5.4,17.16-5.33,3.88,.07,11.38,1.71,14.79,3.55,5.92,3.19,18.34,13.61,25.4,16.81,1.11,.5,2.18,1.07,3.4,1.07h6.11c1.63,0,2.96-1.32,2.96-2.96v-61.67c0-1.63-1.32-2.96-2.96-2.96Z"/>
          <path class="cls-2" d="M329.85,347.22h-35.59c-1.49,0-2.71,2.01-2.71,4.47v152.97c0,.38-.06,.75-.17,1.08l-6.42,20.49c-.5,1.49,.16,3.31,1.19,3.31h51.81c1.03,0,1.68-1.82,1.19-3.32l-6.42-20.43c-.11-.33-.17-.7-.17-1.08v-153.03c0-2.46-1.22-4.47-2.71-4.47Z"/>
          <path class="cls-2" d="M340.25,668.46v-117.2c0-1.95-1.6-3.55-3.55-3.55h-49.71c-1.95,0-3.55,1.6-3.55,3.55v117.15c0,.3-.08,.59-.22,.85l-6.86,12.51c-.65,1.18,.21,2.63,1.56,2.63h67.84c1.35,0,2.21-1.45,1.56-2.63l-6.85-12.45c-.14-.26-.22-.56-.22-.86Z"/>
          <path class="cls-2" d="M152.09,173.43C76.79,209.69-21.48,328.81,6.21,474.2c66.17,347.39,87.22,464.68,87.22,464.68l457.16-263.17s34.59-19.55,57.15-48.12c8.57-10.85,14.48-23.87,18.53-36.07,5.81-17.49,8.54-35.86,8.54-54.3V3.5S233.29,134.33,152.09,173.43Zm287.28,144.98c0,3.11-2.41,5.69-5.51,5.9-8,.55-22.49,1.25-28.21-.43-5.93-1.74-17.59-11.06-26.06-18.31-5.4-4.63-14.82-3.46-18.74,2.48l-13.19,21.75h-.34v169.28l10.16,30.57h.54v134.32l12.46,26.42c1.4,3.5-1.18,12.04-4.95,12.04h-107.12c-3.83,0-6.4-8.65-4.89-12.16l13.66-26.3v-126.28c-.38-2.86-.43-5.65,0-7.3v-.74h.25l10.52-30.57v-169.28h-.12s-9.47-19.53-25.44-24.85c-7.3-2.43-20.71-3.55-30.77,.59-5.08,2.09-15.53,10.2-22.25,15.63-3.53,2.86-8.65,2.59-11.86-.62l-16.38-16.38c-3.04-3.04-3.46-7.82-1-11.35,11.52-16.55,46.19-61,91.73-70.11,14.8-2.96,52.33-4.63,66.87-.59,10.65,2.96,22.91,14.11,31.61,21.76,4.56,4,11.39,3.91,15.85-.2,7.66-7.06,19.07-16.93,25.33-19.19,6.46-2.33,23.48-1.59,32.34-1.01,3.11,.2,5.53,2.79,5.53,5.9v89.04Z"/>
        </g>
      </g>
    </g>
  </g>
</svg>